# xmcd
#
# Track frame offsets:
#	150
#	11511
#	24806
#	36278
#	54671
#	72623
#	86758
#	99921
#	113043
#	126736
#	137918
#	149676
#	162461
#	174978
#	186188
#	198873
#	209571
#	222386
#	233638
#	244246
#
# Disc length: 3415 seconds
# Revision: 3
# Processed by: cddbd v1.5.2PL0 Copyright (c) Steve Scherf et al.
# Submitted via: dBpowerAMP V12.0
#
DISCID=2e0d5514
DTITLE=Various Artist - Country Classics, Disc 2
DYEAR=1998
DGENRE=Country
TTITLE0=Patsy Cline - Hungry for Love
TTITLE1=Faron Young - The Tips Of My Fingers (broadcast)
TTITLE2=Don Gibson - A Legend in My Time (I'd Be)
TTITLE3=Merle Haggard - Mamma's Hungry Eyes (live)
TTITLE4=Willie Nelson - The Red Headed Stranger (live)
TTITLE5=George Jones - Cold Cold Heart
TTITLE6=The Sons of the Pioneers - Cool Water
TTITLE7=Hank Snow - You've Broken My Heart
TTITLE8=Merle Travis - Divorce Me C.O.D.
TTITLE9=Hank Thompson - Red Necks, White Socks and Blue Ribbon Beer
TTITLE10=Bob Wills and his Texas Playboys - New San Antonio Rose
TTITLE11=Roy Rodgers - Don't Fence Me In
TTITLE12=Jimmie Rodgers - Waitin' for a Train
TTITLE13=Hank Williams - Mind Your Own Business (broadcast)
TTITLE14=Johnny Cash - Folsom Prison Blues (live)
TTITLE15=Jim Reeves - Just Call Me Lonesome (broadcast)
TTITLE16=Don Williams - Amanda (live)
TTITLE17=Bobby Bare - Please Dont Tell Me How The Story Ends
TTITLE18=Roger Miller - When Two Worlds Collide
TTITLE19=Kenny Rogers - Me and Bobby McGee
EXTD=
EXTT0=
EXTT1=
EXTT2=
EXTT3=
EXTT4=
EXTT5=
EXTT6=
EXTT7=
EXTT8=
EXTT9=
EXTT10=
EXTT11=
EXTT12=
EXTT13=
EXTT14=
EXTT15=
EXTT16=
EXTT17=
EXTT18=
EXTT19=
PLAYORDER=
